<svg viewBox="0 0 400 400"
  xmlns="http://www.w3.org/2000/svg" xmlns:xlink="http://www.w3.org/1999/xlink">
  <metadata>
    <rdf:RDF xmlns:rdf="http://www.w3.org/1999/02/22-rdf-syntax-ns#" xmlns:schema="http://schema.org/">
      <rdf:Description rdf:about="https://github.com/sellabae">
        <rdf:author>Sella Bae</rdf:author>
        <rdf:homepage>https://github.com/sellabae</rdf:homepage>
      </rdf:Description>
    </rdf:RDF>
  </metadata>
  <defs>
    <style>
      .cls-1{fill:#edb2a4;}
      .cls-2{fill:#c63d00;}
      .cls-3{clip-path:url(#clip-path);}
      .cls-4{fill:#e2887f;}
      .cls-5{fill:#42210b;}
      .cls-6{fill:#e97c6c;}
      .cls-7{fill:#e55d28;}
    </style>
    <clipPath id="clip-path">
      <path id="face" class="cls-1" d="M336.63,232.83v0c.12-2.56.2-5.13.2-7.72,0-97.14-62.5-160.51-139.59-160.51S57.63,128,57.63,225.14,149.57,401,197.23,401c35.6,0,88.68-37.64,118.07-93,6.87,1.71,48-4.59,53.77-48.81C374.3,219.24,336.63,232.83,336.63,232.83Z"/>
    </clipPath>
  </defs>
  <title>Jiyeon</title>
    <g id="Jiyeon">
      <path id="hair-back" class="cls-2" d="M221.29,10.77S254-19,317.57,32,428,189.25,387.84,268.4c-36.58,72.08-44.28,91.31-24.06,112.45H248.37Z"/>
      <g id="face-mask">
        <path id="face-2" data-name="face" class="cls-1" d="M336.63,232.83v0c.12-2.56.2-5.13.2-7.72,0-97.14-62.5-160.51-139.59-160.51S57.63,128,57.63,225.14,149.57,401,197.23,401c35.6,0,88.68-37.64,118.07-93,6.87,1.71,48-4.59,53.77-48.81C374.3,219.24,336.63,232.83,336.63,232.83Z"/>
        <g class="cls-3">
          <g id="blush">
            <ellipse class="cls-4" cx="290.61" cy="349.13" rx="48.14" ry="48.06"/>
            <ellipse class="cls-4" cx="108.65" cy="349.13" rx="48.14" ry="48.06"/>
          </g>
        </g>
      </g>
      <g id="facefeatures">
        <path id="mouse" class="cls-5" d="M158.13,319.33s-.42-1.7,9.25,5.81c8.67,6.73,18.17,10.54,27.85,10.54,9.9,0,19.9-.35,36.65-10.34,11.39-6.79,14.25-9,11.48-4-3.29,5.94-24,22-46.13,22C177,343.37,157.13,326.33,158.13,319.33Z"/>
        <path id="nose" class="cls-6" d="M201.08,257.82s5.77,50.94-1.93,51.91-27-12.5-22.14-19.23S198.19,265.51,201.08,257.82Z"/>
        <g id="eyes">
          <path d="M228.39,258s-3.06-7.13,22.44-18.33,39.78-2,39.78,1-19.38,3.06-16.32,4.07,17.34,5.1,5.1,5.1c-14.32,0-23.46,0-32.64,3S229.41,261,228.39,258Z"/>
          <path d="M170.87,258s3.06-7.13-22.44-18.33-39.78-2-39.78,1S128,243.73,125,244.74s-17.34,5.1-5.1,5.1c14.32,0,23.46,0,32.64,3S169.85,261,170.87,258Z"/>
        </g>
        <g id="eyebrows">
          <path class="cls-5" d="M221.29,211.69s42.36-15.38,63.54-14.42c0,0,0-7.69-11.55-6.73C263.26,191.38,221.29,200.15,221.29,211.69Z"/>
          <path class="cls-5" d="M177,211.69s-42.36-15.38-63.54-14.42c0,0,0-7.69,11.55-6.73C135,191.38,177,200.15,177,211.69Z"/>
        </g>
      </g>
      <path id="hair-front" class="cls-2" d="M214.55,100.19s-9.62-21.14-43.32,8.65-82.79,81.7-80.87,137.45,26,114.38,75.1,134.56H64.37S2.76,304,2.76,211.69,119.24-42.06,224.18,11.77c0,0,151.15,112.45,112.64,221.06,0,0-1-43.25-38.51-92.27C259,89.25,221.29,86.74,214.55,100.19Z"/>
      <path id="hair-highlight-left" class="cls-7" d="M64.13,380.85S5.21,306,.17,221.41,102.62-45.51,221.62,10.49c0,0-67.49-13.64-105.49,20.36-31.68,28.35-162,154-43,350Z"/>
      <path id="hair-highlight-right" class="cls-7" d="M214.55,100.19s14.92-44,54.75-13.41,69.83,76.55,75.33,143.9l-7.5,2.65s-5.92-38.66-27.8-75.13C285.18,118,234.55,77.19,214.55,100.19Z"/>
    </g>
</svg>
