<svg viewBox="0 0 400 400"
  xmlns="http://www.w3.org/2000/svg" xmlns:xlink="http://www.w3.org/1999/xlink">
  <metadata>
    <rdf:RDF xmlns:rdf="http://www.w3.org/1999/02/22-rdf-syntax-ns#" xmlns:schema="http://schema.org/">
      <rdf:Description rdf:about="https://github.com/sellabae">
        <rdf:author>Sella Bae</rdf:author>
        <rdf:homepage>https://github.com/sellabae</rdf:homepage>
      </rdf:Description>
    </rdf:RDF>
  </metadata>
  <defs>
    <style>
      .skin-color{fill:#e29883;}
      .hair-color{fill:#002059;}
      .cls-3{clip-path:url(#clip-path);}
      .blush-color{fill:#e07e63;}
      .nose-color{fill:#9e4d35;}
    </style>
    <clipPath id="clip-path">
      <path id="face" class="skin-color" d="M319.82,235c-8.66,0,9.62-58-28.87-122S79.29,8,83.14,179c0,0,2.71,32.29,3,65.06h0S58.12,225,50.43,273c-6.06,37.77,19.51,40.72,30.68,40.26C79.84,350.11,95.74,399.14,182.24,400c102,1,118.34-85,118.34-85s42.33,6,48.1-33S328.48,235,319.82,235Z"/>
    </clipPath>
  </defs>
  <title>Richard</title>
  <desc>a face icon of Richard</desc>
  <g id="Richard">
    <path id="hair-back" class="hair-color" d="M169.52,21.54s-50.23-29-84.7,36-109.33,56-76.83,129-26.59,97,23.64,127,14.28,33.5,20.69,39,30,6.5,44.32-13,189.1-9,189.1-9,6.75,13.38,20.19,17.5c17,5.21,36.17,2.63,36.45-1,.49-6.5-13.3-11.5,6.4-28.5s65-23,45.3-85,38.42-101-23.63-136-49.25-80-118.19-94S169.52,21.54,169.52,21.54Z"/>
    <g id="face-group">
      <g id="face-mask">
        <path id="face-2" data-name="face" class="skin-color" d="M319.82,235c-8.66,0,9.62-58-28.87-122S79.29,8,83.14,179c0,0,2.71,32.29,3,65.06h0S58.12,225,50.43,273c-6.06,37.77,19.51,40.72,30.68,40.26C79.84,350.11,95.74,399.14,182.24,400c102,1,118.34-85,118.34-85s42.33,6,48.1-33S328.48,235,319.82,235Z"/>
        <g class="cls-3">
          <g id="blush">
            <circle class="blush-color" cx="273.55" cy="337" r="35"/>
            <circle class="blush-color" cx="96.57" cy="345" r="35"/>
          </g>
        </g>
      </g>
      <g id="facefeatures">
        <path id="mouse" d="M144.28,324c7.13,13.29,23.74,19,38,18.62,12.49-.38,26.43-3.11,37.77-8.49,7.11-3.37,13.23-8.17,16.88-15.25,1.95-3.79-4.55-10-6.7-5.79-8.21,15.95-30.87,19.8-46.93,21.13-9,.75-18.55-.48-26.06-5.8a26.05,26.05,0,0,1-5.12-4.76c-.48-.6-.91-1.23-1.35-1.85s.57,1,.11.15c-2.39-4.45-9.38-3.18-6.57,2Z"/>
        <path id="nose" class="nose-color" d="M195.56,241c3,0,7,66-5,66-10,0-24-4-26-13s11-15,15-22S192.56,241,195.56,241Z"/>
        <g id="eyes">
          <ellipse cx="243.55" cy="252.01" rx="11.5" ry="18.5"/>
          <ellipse cx="139.06" cy="248.51" rx="11.5" ry="18.5"/>
        </g>
        <g id="eyebrows">
          <path d="M235.05,204.52c-8,2-21.53,5.13-19,14,2,7,11-1,22-5a222.28,222.28,0,0,1,39-10c13-2,9-8.86-11-6C252.05,199.52,243.05,202.52,235.05,204.52Z"/>
          <path d="M169.06,209.52s6,4,2,8-10-3-26-8-32-10-37-10-2-6,14-3S154.06,201.52,169.06,209.52Z"/>
        </g>
      </g>
    </g>
    <path id="hair-front" class="hair-color" d="M261.61,129.53c1.44-1.5,5.77,7,7.7,23s7.69,25,29.82,35,18.28,40,18.28,40,32.71-172-130.84-178S85.06,211,85.06,211s-.64-20.82,2.59-39.3c3-17.08,9.28-33.43,11.36-33.19,4.33.5-5.29,31.49,17.8,49.49,19.27,15,59,5.38,58.21,1.5-1.44-7.5-27.89-5-20.2-26,13-35.49,10.58-47,14.91-48.49,7.21-2.5-10.59,31,29.34,66.49,37.4,33.25,78.79,5.08,74.57-1.5-3.85-6-16.75,0-17.8-10.5-.57-5.74,4.65-15.49,5.56-21.66C262.79,138.46,260,131.15,261.61,129.53Z"/>
  </g>
</svg>
