<svg xmlns="http://www.w3.org/2000/svg" xmlns:xlink="http://www.w3.org/1999/xlink" viewBox="0 0 400 400">
  <defs>
    <style>
      .cls-1{fill:none;}
      .cls-2{fill:#cbcbcb;}
      .cls-3{fill:#ea947d;}
      .cls-4{clip-path:url(#clip-path);}
      .cls-5{fill:#e97c6c;}
      .cls-6{fill:#1c1c1c;}
      .cls-7{fill:#e85857;}
      .cls-8{fill:#004568;}
      .cls-9{clip-path:url(#clip-path-2);}
      .cls-10{fill:#10a084;}
    </style>
    <clipPath id="clip-path">
      <path id="face_outline" data-name="face outline" class="cls-1" d="M124.71,181.11s-75.68,175.5,59,214.68C319.1,435.16,355.49,181.11,355.49,181.11L309.34,62Z"/>
    </clipPath>
    <clipPath id="clip-path-2">
      <path class="cls-1" d="M300,103.8s-24.82,16.51-181.29,101.27S58.24,350.36,79.82,339.35c0,0-32.38,15.41-59.35-19.81S-28.1,162.14,101.4,62s206.12-59.43,218-13.2C319.39,48.77,311.83,85.09,300,103.8Z"/>
    </clipPath>
  </defs>
  <title>GreenSella</title>
  <g id="Layer_2" data-name="Layer 2">
    <g id="work">
      <path class="cls-2" d="M146.3,331c-.28,18.28-11.65,34.93-29.09,41a43.4,43.4,0,1,1-5.83-83.54C131.67,292.51,146,310.49,146.3,331c0,2.07,3.25,2.07,3.21,0a46.6,46.6,0,0,0-82.62-29.57,46.6,46.6,0,0,0,44.68,75.37c22-4.07,37.61-23.71,37.94-45.8C149.55,328.93,146.33,328.93,146.3,331Z"/>
      <g id="icon1">
        <circle id="ear" class="cls-3" cx="332.95" cy="271.27" r="39.72"/>
        <path id="face" class="cls-3" d="M124.71,181.11s-76.21,175,59,214.68S355.49,181.11,355.49,181.11L309.34,62Z"/>
        <g class="cls-4">
          <g id="blush">
            <circle class="cls-5" cx="290.01" cy="310.99" r="40.79"/>
            <circle class="cls-5" cx="100.02" cy="290.6" r="40.79"/>
          </g>
        </g>
        <g id="enm">
          <ellipse class="cls-6" cx="253.46" cy="237.08" rx="12.89" ry="20.15"/>
          <ellipse class="cls-6" cx="160.12" cy="240.2" rx="11.81" ry="18.46"/>
          <path class="cls-6" d="M224.71,206.75s26.63-25.14,71.21-19.07C295.92,187.68,245.06,165.74,224.71,206.75Z"/>
          <path class="cls-6" d="M188.62,208.18S164.86,181,119.81,183.4C119.81,183.4,172.84,165.69,188.62,208.18Z"/>
          <path class="cls-6" d="M164.59,312.56A45,45,0,0,0,194,326.14c11.17.69,25.84-4.07,40.76-14.17,0,0-15,22.1-39.21,22.47C181.06,334.66,169.26,324.41,164.59,312.56Z"/>
          <path class="cls-7" d="M202.53,242.89A243.54,243.54,0,0,1,180.63,269c-11.35,11.67,1.53,25.76,19,19.66S202.53,242.89,202.53,242.89Z"/>
        </g>
        <g id="hair">
          <path class="cls-8" d="M300,103.8s37.77,52.84,36.69,156.3c0,0,52.88-33,61.51-83.65C412.29,93.6,341,30.05,319.39,48.77Z"/>
          <path class="cls-8" d="M300,103.8s-24.82,16.51-181.29,101.27S58.24,350.36,79.82,339.35c0,0-32.38,15.41-59.35-19.81S-28.1,162.14,101.4,62s206.12-59.43,218-13.2C319.39,48.77,311.83,85.09,300,103.8Z"/>
          <g class="cls-9">
            <path class="cls-10" d="M300.5,104.35s-16.19-83.65-123-34.12S-15.76,243,13.41,308s92.31,41.45,117.67,14.31C283.24,159.39,300.5,104.35,300.5,104.35Z"/>
          </g>
        </g>
      </g>
      <path class="cls-2" d="M342.58,311.76c14.14,11.51,20.33,30.41,14.52,47.91A43.4,43.4,0,1,1,278,324.86c9.68-17.29,29.79-25.47,48.88-20.85,2,.48,2.86-2.62.85-3.1-18.06-4.37-37.16,1.74-48.65,16.54a46.6,46.6,0,1,0,78.72,49c9.53-19.63,3.87-43.26-12.94-56.94-1.59-1.3-3.88,1-2.28,2.27Z"/>
    </g>
  </g>
</svg>
